<?xml version="1.0" standalone="no"?>
<!DOCTYPE svg PUBLIC "-//W3C//DTD SVG 20010904//EN"
 "http://www.w3.org/TR/2001/REC-SVG-20010904/DTD/svg10.dtd">
<svg version="1.0" xmlns="http://www.w3.org/2000/svg"
 width="503.000000pt" height="503.000000pt" viewBox="0 0 503.000000 503.000000"
 preserveAspectRatio="xMidYMid meet">
<metadata>
Created by potrace 1.14, written by Peter Selinger 2001-2017
</metadata>
<g transform="translate(0.000000,503.000000) scale(0.100000,-0.100000)"
fill="#000000" stroke="none">
<path d="M2215 4570 c-168 -16 -387 -68 -551 -131 -179 -69 -420 -208 -560
-324 -237 -196 -438 -449 -563 -708 -20 -41 -27 -48 -45 -43 -11 3 -63 13
-114 21 -173 29 -262 2 -262 -80 0 -52 13 -70 85 -116 36 -22 93 -72 128 -109
l64 -69 -13 -52 c-8 -29 -20 -97 -28 -153 -62 -429 1 -833 189 -1222 46 -96
147 -268 165 -284 3 -3 17 -21 30 -40 13 -19 27 -37 30 -40 3 -3 30 -34 60
-70 311 -371 766 -628 1250 -707 151 -25 536 -25 675 0 210 38 382 94 570 186
127 62 306 171 342 207 8 8 17 14 21 14 13 0 189 166 271 255 70 76 201 248
201 264 0 5 4 11 8 13 18 7 122 207 177 338 30 71 80 228 99 311 42 184 60
464 43 669 l-7 75 77 82 c43 45 102 102 132 127 30 25 63 58 73 73 26 41 23
89 -8 120 -24 24 -29 25 -107 19 -45 -3 -123 -9 -173 -12 l-91 -6 -12 33 c-48
124 -103 240 -159 334 -54 89 -130 205 -141 215 -3 3 -32 37 -63 75 -68 85
-189 202 -316 307 -30 24 -189 130 -246 162 -218 126 -485 218 -731 252 -128
18 -384 25 -500 14z m360 -120 c369 -30 722 -165 1020 -390 185 -138 351 -319
480 -520 56 -87 164 -306 167 -341 3 -22 -1 -24 -45 -27 l-48 -3 -20 48 c-68
157 -150 299 -247 421 -203 257 -456 451 -742 570 -567 236 -1179 189 -1707
-129 -34 -21 -70 -45 -80 -53 -10 -8 -41 -32 -69 -53 -111 -83 -238 -208 -348
-343 -30 -37 -128 -190 -157 -245 -25 -47 -30 -50 -69 -53 -70 -5 -72 -1 -33
75 44 84 130 216 196 303 105 136 360 369 477 434 11 6 59 34 107 62 113 65
175 94 298 137 280 98 530 131 820 107z m40 -987 c195 -33 429 -132 618 -260
l108 -73 47 12 c33 8 178 12 482 11 281 -1 504 4 630 13 107 8 205 11 218 9
28 -7 47 -45 38 -78 -3 -13 -32 -48 -63 -78 -93 -87 -234 -235 -340 -358 -149
-174 -274 -260 -430 -295 -40 -9 -96 -25 -125 -36 -130 -47 -218 -63 -325 -56
-61 3 -103 2 -103 -3 0 -5 15 -20 33 -33 17 -12 40 -32 49 -43 21 -25 23 -81
3 -101 -20 -20 -19 -37 3 -57 16 -15 21 -14 67 8 49 24 118 32 142 17 19 -12
7 -85 -18 -104 -11 -10 -27 -18 -35 -18 -8 0 -14 -4 -14 -10 0 -5 11 -10 25
-10 36 0 78 -23 109 -60 32 -39 33 -53 1 -85 -29 -28 -42 -30 -80 -13 -22 10
-29 8 -55 -17 -23 -22 -28 -34 -23 -56 9 -47 -45 -206 -83 -243 -64 -62 -123
-103 -166 -115 -67 -19 -147 7 -204 66 -71 73 -73 62 -22 -156 31 -131 31
-135 19 -233 -9 -74 -9 -103 -1 -113 6 -8 10 -24 8 -37 -3 -19 -21 -28 -128
-65 -69 -23 -183 -54 -255 -69 -113 -22 -155 -26 -325 -26 -107 0 -215 4 -240
9 l-45 9 1 124 c0 122 13 210 75 542 21 113 20 134 -9 119 -9 -5 -24 -12 -33
-14 -21 -7 -79 -110 -79 -140 0 -31 18 -47 52 -47 24 0 28 -3 23 -23 -35 -157
-65 -365 -65 -460 0 -46 -3 -86 -6 -89 -15 -16 -244 49 -403 114 l-73 31 6 53
c3 30 17 88 31 131 l24 77 -26 22 c-23 19 -28 20 -40 8 -26 -25 -50 -16 -72
27 -12 23 -21 49 -20 58 1 9 1 23 0 31 -2 23 -33 -13 -45 -52 -10 -31 -14 -33
-63 -36 l-53 -3 0 45 c0 25 5 79 11 121 11 69 10 77 -7 93 -30 27 -56 81 -57
117 -1 19 12 62 28 95 26 54 33 62 69 72 33 9 71 29 105 54 2 2 -11 21 -28 43
-21 26 -35 59 -42 98 -7 32 -17 63 -24 68 -30 25 -58 96 -52 134 5 43 50 101
78 101 18 0 35 17 26 27 -3 2 -55 11 -116 19 -161 21 -346 79 -431 135 -14 9
-45 29 -70 45 -70 46 -80 54 -161 135 -66 66 -85 93 -143 211 -37 74 -89 164
-116 200 -60 80 -174 188 -221 210 -19 10 -43 26 -53 37 -25 27 -24 78 3 104
19 20 32 22 114 21 61 0 131 -10 207 -27 63 -14 171 -33 240 -42 69 -9 188
-31 266 -50 77 -18 208 -46 290 -60 82 -14 165 -31 185 -37 32 -9 41 -7 78 17
218 137 484 251 679 289 139 28 236 27 397 -1z m-2084 -676 c31 -62 31 -62 25
-185 -15 -317 52 -648 184 -913 45 -91 109 -203 133 -234 4 -5 30 -41 58 -80
28 -38 110 -129 183 -200 295 -293 639 -462 1056 -521 151 -21 417 -14 577 15
461 86 880 344 1147 706 102 138 106 143 106 154 0 6 3 11 8 11 4 0 12 10 18
23 6 12 31 63 56 112 114 227 185 511 189 751 l1 106 42 48 c22 27 44 49 49
49 12 2 7 -289 -8 -401 -26 -199 -82 -386 -173 -578 -44 -93 -148 -268 -172
-290 -3 -3 -17 -21 -30 -40 -129 -191 -422 -440 -657 -558 -295 -149 -523
-209 -841 -219 -478 -16 -882 114 -1275 410 -166 125 -378 368 -490 562 -172
298 -257 612 -260 960 -2 161 19 389 35 379 4 -3 22 -33 39 -67z m1624 -1427
c0 -13 -6 -25 -12 -27 -16 -6 -27 21 -19 43 9 23 31 11 31 -16z"/>
<path d="M2245 3340 c-15 -8 -6 -9 32 -5 33 4 67 0 95 -9 31 -11 52 -13 78 -6
19 5 53 14 75 19 35 9 32 10 -25 5 -36 -4 -74 -6 -85 -5 -120 9 -153 9 -170 1z"/>
<path d="M418 3183 c21 -27 78 -125 126 -220 130 -259 214 -356 375 -436 l83
-41 127 -1 c124 0 127 -1 189 -34 34 -19 66 -31 70 -27 4 4 7 60 8 124 0 65 5
136 11 159 9 37 7 50 -12 90 -23 49 -103 135 -165 176 -38 25 -118 52 -190 63
-25 3 -91 23 -147 44 -56 21 -138 46 -182 55 -45 9 -136 34 -203 56 -67 21
-124 39 -126 39 -2 0 14 -21 36 -47z"/>
<path d="M2257 3189 c-32 -4 -59 -8 -62 -10 -2 -2 72 -2 163 0 92 2 193 4 226
4 40 0 52 3 37 9 -24 8 -274 6 -364 -3z"/>
<path d="M4492 3029 c-134 -54 -169 -59 -401 -59 -244 0 -351 -14 -443 -60
-103 -50 -201 -150 -214 -218 -4 -18 1 -52 11 -82 16 -48 16 -56 1 -110 -22
-76 -14 -95 33 -84 20 4 72 7 116 6 288 -6 287 -6 356 19 189 72 305 175 464
412 54 82 108 156 120 165 18 15 42 44 33 41 -2 -1 -36 -14 -76 -30z"/>
<path d="M2869 2937 c-52 -20 -99 -50 -138 -91 -44 -45 -28 -46 30 -3 127 95
252 101 369 16 49 -35 69 -29 25 7 -68 56 -115 77 -183 81 -41 2 -81 -2 -103
-10z"/>
<path d="M1790 2905 c-61 -19 -140 -58 -140 -69 0 -10 8 -7 105 28 118 43 232
33 322 -28 21 -15 42 -26 48 -26 17 0 -51 58 -97 82 -53 28 -171 35 -238 13z"/>
<path d="M1745 2786 c-27 -13 -62 -36 -77 -52 -33 -35 -67 -110 -68 -145 0
-26 48 -89 68 -89 5 0 12 -4 14 -8 2 -4 32 -20 68 -35 160 -67 317 -61 403 15
l38 33 -18 60 c-45 158 -155 245 -311 245 -50 0 -80 -6 -117 -24z m68 -48 c34
-40 8 -98 -45 -98 -66 0 -92 69 -41 109 30 24 58 20 86 -11z m97 -103 c0 -8
-7 -15 -15 -15 -8 0 -15 7 -15 15 0 8 7 15 15 15 8 0 15 -7 15 -15z"/>
<path d="M2880 2801 c-111 -36 -179 -110 -214 -232 -9 -31 -14 -62 -11 -70 8
-21 83 -68 130 -80 92 -25 277 9 368 69 75 49 88 70 78 127 -13 69 -53 123
-120 163 -36 21 -59 26 -125 29 -45 1 -92 -1 -106 -6z m52 -58 c41 -37 10
-103 -48 -103 -34 0 -64 28 -64 60 0 9 7 26 16 38 18 27 69 30 96 5z m101
-108 c1 -5 -6 -11 -15 -13 -11 -2 -18 3 -18 13 0 17 30 18 33 0z"/>
<path d="M2316 2474 c-13 -33 -6 -44 24 -44 17 0 39 -5 49 -12 15 -9 25 -9 46
0 14 7 37 12 50 12 20 0 25 5 25 25 0 14 -4 25 -10 25 -5 0 -10 -7 -10 -15 0
-9 -6 -12 -16 -8 -8 3 -26 0 -40 -7 -18 -10 -29 -11 -46 -2 -13 6 -32 11 -43
9 -14 -1 -19 3 -17 16 4 21 -4 22 -12 1z"/>
<path d="M2255 2273 c-40 -21 -97 -65 -91 -70 2 -2 21 6 43 20 60 37 71 40
208 42 108 2 137 -1 175 -17 24 -10 48 -24 52 -31 4 -7 8 -7 8 -2 0 18 -15 32
-56 53 -36 18 -59 21 -175 21 -103 0 -141 -4 -164 -16z"/>
<path d="M2477 2234 c-3 -4 -50 -7 -104 -6 -73 0 -89 -2 -63 -8 55 -13 100
-15 169 -6 42 6 59 11 50 17 -16 10 -43 12 -52 3z"/>
<path d="M3338 2211 c-15 -16 -43 -32 -63 -35 -68 -13 -230 -27 -295 -26 -36
1 -76 1 -90 0 -67 -2 -123 1 -143 9 -12 4 -56 2 -97 -4 -71 -12 -103 -21 -175
-51 -51 -21 -137 -44 -165 -44 -14 0 -30 -4 -36 -10 -5 -5 -46 -12 -92 -16
-112 -9 -128 -22 -137 -113 -6 -57 -4 -75 13 -107 21 -42 37 -180 23 -202 -6
-10 -26 -13 -67 -10 l-59 3 -3 -33 c-3 -30 0 -34 44 -52 53 -23 135 -22 239 5
33 8 79 15 102 15 29 0 46 6 55 19 9 12 32 21 68 26 30 4 68 13 84 21 16 8 34
14 41 14 7 0 24 11 40 25 15 14 41 29 59 32 41 8 93 30 101 43 3 5 16 10 28
10 12 0 37 9 55 20 18 11 39 20 47 20 8 0 51 16 97 36 93 42 134 55 142 47 3
-4 2 -11 -3 -17 -12 -15 -51 -148 -51 -174 0 -11 -7 -27 -15 -36 -17 -16 -20
-72 -5 -81 6 -3 10 -23 10 -45 0 -28 8 -48 33 -78 35 -44 49 -53 115 -73 57
-17 126 0 163 41 14 15 40 35 56 44 35 18 65 72 88 161 16 64 19 105 8 105 -5
0 -24 -10 -43 -22 -19 -11 -46 -24 -60 -28 -14 -3 -25 -11 -26 -16 -4 -34 -18
-74 -26 -74 -14 0 -31 -21 -46 -55 -12 -27 -15 -28 -24 -12 -5 10 -7 29 -4 42
3 12 0 38 -7 56 -13 36 -13 139 0 230 9 56 35 109 53 109 6 0 29 18 52 40 42
40 42 41 23 56 -11 8 -28 13 -37 10 -26 -6 -22 6 12 39 45 43 42 93 -7 134
-21 17 -40 31 -43 31 -3 0 -17 -13 -32 -29z"/>
<path d="M1443 2214 c-17 -7 -39 -24 -47 -36 -23 -33 -20 -97 7 -137 40 -62
47 -76 47 -99 0 -31 23 -82 53 -114 51 -57 201 -132 288 -143 22 -3 49 -10 59
-15 40 -22 147 -50 189 -50 40 0 43 2 37 23 -3 12 -9 47 -12 77 -4 30 -14 69
-22 85 -18 35 -18 145 -1 187 13 32 63 58 116 58 21 1 58 5 83 11 25 5 69 14
99 20 90 16 85 24 -17 26 -53 1 -128 5 -167 8 -40 4 -98 1 -135 -5 -36 -7 -81
-11 -100 -11 -19 0 -84 1 -143 1 -95 0 -113 3 -158 25 -27 14 -68 44 -91 65
-45 45 -41 44 -85 24z"/>
<path d="M1386 1705 c-23 -17 -65 -102 -66 -132 0 -32 41 -112 61 -118 9 -3
20 -17 23 -30 4 -14 11 -25 17 -25 6 0 36 -26 68 -57 31 -32 78 -77 103 -101
26 -23 54 -52 63 -65 15 -21 16 -21 30 -3 17 23 35 104 35 161 0 41 -2 44 -31
50 -18 4 -49 25 -69 46 -28 29 -45 39 -68 39 -27 0 -32 4 -32 24 0 14 -6 31
-13 38 -26 26 -67 120 -67 154 0 38 -20 45 -54 19z"/>
<path d="M3326 1641 c-3 -5 -1 -23 5 -40 6 -17 9 -40 6 -51 -3 -11 -1 -23 4
-26 5 -3 9 -1 9 5 0 5 11 22 25 37 14 15 26 33 27 40 0 8 1 19 2 25 1 14 -70
23 -78 10z"/>
</g>
</svg>
